<?xml version="1.0" encoding="utf-8"?>
<!-- Generator: Adobe Illustrator 24.1.0, SVG Export Plug-In . SVG Version: 6.00 Build 0)  -->
<svg version="1.1" id="Layer_1" xmlns="http://www.w3.org/2000/svg" xmlns:xlink="http://www.w3.org/1999/xlink" x="0px" y="0px"
	 viewBox="0 0 512 371" style="enable-background:new 0 0 512 371;" xml:space="preserve">
<style type="text/css">
	.st0{fill:#999999;stroke:#E6E6E6;stroke-width:5;stroke-miterlimit:10;}
	.st1{opacity:0.26;}
	.st2{fill:#FFFFFF;}
	.st3{fill:#FBB040;}
</style>
<g>
	<g>
		<path class="st0" d="M451,154.3c-2.3,0-4.5,0.2-6.7,0.4c-12.4-25-38.2-42.2-68-42.2c-6.2,0-12.3,0.8-18.1,2.2
			C356.5,56.3,308.6,9.5,249.8,9.5c-59.3,0-107.5,47.7-108.3,106.8c-7.4-2.4-15.4-3.8-23.7-3.8c-41.9,0-75.9,34-75.9,75.9
			c0,1.4,0,2.8,0.1,4.1c0,0-0.1,0-0.1,0C22.1,192.5,6,208.6,6,228.4c0,19.8,16.1,35.9,35.9,35.9H451c30.4,0,55-24.6,55-55
			C506,178.9,481.4,154.3,451,154.3z"/>
		<g class="st1">
			<path class="st2" d="M249.8,9.5c-59.3,0-107.5,47.7-108.3,106.8c-7.4-2.4-15.4-3.8-23.7-3.8c-26.4,0-49.7,13.5-63.3,34
				c8.7-8.4,19.5-14.7,31.2-17.8c19.9-5.3,41.9-1.4,58.9,10c-8.8,7.6-13.5,19.8-11.7,31.2c4.2-10.5,12.4-18,22-24
				c9.6-6,21.6-8.5,32.9-7.6c-9.5-7.8-23.5-9.6-34.8-4.9c0.9-32.2,14.3-64.1,37.2-86.7c25.8-25.4,65.5-36.9,100-25.9
				c11.7,3.7,22.4,9.8,32.5,16.9C303.6,20.2,278,9.5,249.8,9.5z"/>
			<path class="st2" d="M506,209.3c0-30.4-24.6-55-55-55c-2.3,0-4.5,0.2-6.7,0.4c-12.4-25-38.2-42.2-68-42.2c-6,0-11.8,0.7-17.4,2
				c-19.3,8.3-36.1,22.6-46.8,40.8c15.3-19.8,40.9-30.1,65.7-27c24.8,3.1,47.5,20.2,57.4,43.2c15-5,31.9-0.4,43.9,9.9
				c12,10.3,18.7,26,19.2,41.8c0.2,5.6-0.4,11.3-1.6,16.8C502.6,231.2,506,220.6,506,209.3z"/>
		</g>
	</g>
	<polygon class="st3" points="264,161.6 218.3,161.6 193.8,247.3 242.9,247.3 212.3,367.1 301.9,214.6 248.9,214.6 	"/>
</g>
</svg>
