<?xml version="1.0" encoding="utf-8"?>
<!-- Generator: Adobe Illustrator 24.1.0, SVG Export Plug-In . SVG Version: 6.00 Build 0)  -->
<svg version="1.1" id="Layer_1" xmlns="http://www.w3.org/2000/svg" xmlns:xlink="http://www.w3.org/1999/xlink" x="0px" y="0px"
	 viewBox="0 0 512 512" style="enable-background:new 0 0 512 512;" xml:space="preserve">
<style type="text/css">
	.st0{fill-rule:evenodd;clip-rule:evenodd;fill:#808080;}
	.st1{fill-rule:evenodd;clip-rule:evenodd;fill:#E6E6E6;}
</style>
<g>
	<path class="st0" d="M125.6,487.6c-10.5,0-19-3.1-25.3-9.1c-10.1-9.7-20.5-30.4-11.1-105.9c3.3-26.3,7.9-51,10.7-64.5
		c-9.8-8-26.7-22.2-43.3-38C16.6,232,1.8,207.6,7,188.5c3.6-13.1,16.5-29.2,85-48.8c24.8-7.1,48.8-12.3,60.9-14.8
		c5.9-10.5,17.9-31.2,31.8-52.1c38.5-57.8,57.6-65.6,71.1-65.6c19.8,0,39.2,19.3,64.9,64.5c11,19.4,20.2,38.5,25.1,49
		c13.1,2.8,39.1,8.6,66,16.3c73.5,21,88,37.4,92.5,50.7c6.7,19.8-7.2,44.9-45.2,81.4c-15.7,15.1-31.8,28.5-41.3,36.1
		c2.5,14.3,6.8,41.2,9.4,69.4c5.9,64.2,0,96.2-19.8,106.8c-5.2,2.8-11.4,4.2-18.5,4.2c-36.5,0-106.1-41.1-132.8-57.7
		C228.8,446,162.5,487.6,125.6,487.6z"/>
	<path class="st1" d="M125.6,504.9c-10.5,0-19-3.1-25.3-9.1c-10.1-9.7-20.5-30.4-11.1-105.9c3.3-26.3,7.9-51,10.7-64.5
		c-9.8-8-26.7-22.2-43.3-38C16.6,249.3,1.8,225,7,205.9c3.6-13.1,16.5-29.2,85-48.8c24.8-7.1,48.8-12.3,60.9-14.8
		c5.9-10.5,17.9-31.2,31.8-52.1c38.5-57.8,57.6-65.6,71.1-65.6c19.8,0,39.2,19.3,64.9,64.5c11,19.4,20.2,38.5,25.1,49
		c13.1,2.8,39.1,8.6,66,16.3c73.5,21,88,37.4,92.5,50.7c6.7,19.8-7.2,44.9-45.2,81.4c-15.7,15.1-31.8,28.5-41.3,36.1
		c2.5,14.3,6.8,41.2,9.4,69.4c5.9,64.2,0,96.2-19.8,106.8c-5.2,2.8-11.4,4.2-18.5,4.2c-36.5,0-106.1-41.1-132.8-57.7
		C228.8,463.4,162.5,504.9,125.6,504.9z"/>
</g>
</svg>
