<?xml version="1.0" encoding="utf-8"?>
<!-- Generator: Adobe Illustrator 24.1.0, SVG Export Plug-In . SVG Version: 6.00 Build 0)  -->
<svg version="1.1" id="Layer_1" xmlns="http://www.w3.org/2000/svg" xmlns:xlink="http://www.w3.org/1999/xlink" x="0px" y="0px"
	 viewBox="0 0 512 512" style="enable-background:new 0 0 512 512;" xml:space="preserve">
<style type="text/css">
	.st0{fill-rule:evenodd;clip-rule:evenodd;fill:#B04A00;}
	.st1{fill-rule:evenodd;clip-rule:evenodd;fill:#D15700;}
	.st2{fill:#FFDD00;}
	.st3{fill:url(#SVGID_1_);}
	.st4{fill:url(#SVGID_2_);}
	.st5{fill:url(#SVGID_3_);}
	.st6{fill:url(#SVGID_4_);}
</style>
<g>
	<path class="st0" d="M129.5,503.8c-10.2,0-18.4-3-24.5-8.9c-9.8-9.5-24.4-25.4-15.3-99.6c3.2-25.9,12.2-54.8,14.9-68.1
		c-9.5-7.9-25.9-21.8-42.1-37.4C23.5,252.3,1.1,212,6.2,193.2c3.5-12.9,24.1-12.4,90.6-31.7c24.1-7,47.4-12.1,59.2-14.6
		c5.8-10.4,17.4-30.7,30.9-51.3C224.3,38.7,242.8,31,256,31c19.2,0,38.1,19,63.1,63.4c10.7,19,19.7,37.9,24.4,48.2
		c12.8,2.7,38,8.4,64.2,16c71.4,20.7,93.8,20.3,98.2,33.3c6.5,19.5-15.3,60.7-52.3,96.7c-15.3,14.9-30.9,28-40.1,35.5
		c2.4,14,13.3,47.4,15.9,75.2c5.8,63.2-6.7,87.8-25.9,98.2c-5,2.7-11.1,4.1-18,4.1c-35.5,0-103.2-40.4-129.1-56.8
		C229.7,462.9,165.3,503.8,129.5,503.8z"/>
	<path class="st1" d="M125.7,487.8c-10.5,0-19-3.1-25.3-9.1c-10.1-9.7-20.5-30.5-11.1-106c3.3-26.3,8-51,10.7-64.6
		c-9.8-8-26.7-22.2-43.4-38C16.6,232,1.7,207.6,7,188.5c3.6-13.2,16.5-29.2,85.1-48.9c24.8-7.1,48.8-12.4,60.9-14.9
		c5.9-10.6,17.9-31.2,31.8-52.1C223.4,14.8,242.4,7,256,7c19.8,0,39.2,19.3,65,64.5c11,19.4,20.3,38.5,25.1,49
		c13.1,2.8,39.1,8.6,66.1,16.3c73.5,21.1,88,37.4,92.6,50.7c6.7,19.8-7.2,44.9-45.3,81.4c-15.7,15.1-31.8,28.5-41.3,36.1
		c2.5,14.3,6.8,41.2,9.4,69.5c6,64.3,0,96.2-19.8,106.9c-5.2,2.8-11.4,4.2-18.6,4.2c-36.6,0-106.2-41.1-132.9-57.7
		C228.9,446.2,162.6,487.8,125.7,487.8z"/>
	<path class="st2" d="M256,24.4c29,0,77.9,111.4,77.9,111.4s144.5,28.3,154.3,57.3c9.9,29.1-89.1,104.8-89.1,104.8
		s29.4,152.6,0.4,168.2c-29,15.6-143.5-59-143.5-59s-118.9,82.6-143.5,59c-24.6-23.6,6.8-164.9,6.8-164.9S16.2,220.6,23.8,193.1
		c7.5-27.5,140.6-52.8,140.6-52.8S227,24.4,256,24.4z"/>
	<linearGradient id="SVGID_1_" gradientUnits="userSpaceOnUse" x1="256.5859" y1="330.6913" x2="256.5859" y2="13.7802">
		<stop  offset="0.2581" style="stop-color:#FFFF00;stop-opacity:0.4"/>
		<stop  offset="0.8548" style="stop-color:#FFFF00;stop-opacity:0.4"/>
	</linearGradient>
	<path class="st3" d="M130.3,427.5c-9.8-6.5,1.9-80.6,14.4-136.9l3.6-16.1l-13-10.1c-36.9-28.9-84.2-68.1-83-80.2
		c1.2-12.1,68-25.3,116.8-34.6l12.2-2.3l5.9-10.9C211,92.5,242.9,37,255.6,36.6c12.8-0.3,36.7,52.9,54.4,93.3l5.5,12.5l13.4,2.6
		c56.4,11.1,130.7,30.6,131.9,40c1.2,9.5-42.9,49.3-77.5,75.8l-12.8,9.8l3,15.8c11,57.3,23.7,132.9,11,138.9
		c-12.7,6-75.2-31.1-114.3-56.5l-14.7-9.6l-14.4,10C203.4,395.5,140.1,433.9,130.3,427.5z"/>
	<linearGradient id="SVGID_2_" gradientUnits="userSpaceOnUse" x1="265.0345" y1="355.29" x2="265.0345" y2="237.1562">
		<stop  offset="0.2581" style="stop-color:#FFFF00;stop-opacity:0.4"/>
		<stop  offset="0.8548" style="stop-color:#FFFF00;stop-opacity:0.4"/>
	</linearGradient>
	<path class="st4" d="M402.4,245.7c-76.6,15.1-186.7,42.7-262.4,67.4c-5.6,27.6-10.3,56.6-12.3,78.6c72-39.9,170.7-84.5,244.3-113.5
		l-1.4-7.4l12.8-9.8C389.5,256.1,395.9,251,402.4,245.7z"/>
	<linearGradient id="SVGID_3_" gradientUnits="userSpaceOnUse" x1="23.3606" y1="322.8098" x2="488.9541" y2="322.8098">
		<stop  offset="8.602150e-02" style="stop-color:#FF8A1C;stop-opacity:0.4"/>
		<stop  offset="0.5914" style="stop-color:#FF8A1C;stop-opacity:0.4"/>
	</linearGradient>
	<path class="st5" d="M479,182.5c-0.2,18.9-26.6,50.9-94.8,94.6c60.9,232.6-20,169.1-128.1,110C91.7,500,90.9,443.9,132.8,286
		C82,251.7,13.6,189.5,44.7,175.3c-11.3,5.7-19.3,11.7-21,17.8c-7.5,27.5,95.5,108.1,95.5,108.1s-31.5,141.3-6.8,164.9
		c24.6,23.6,143.5-59,143.5-59s114.5,74.6,143.5,59c29-15.6-0.4-168.2-0.4-168.2s99-75.8,89.1-104.8C487,189.5,483.8,186,479,182.5z
		"/>
	<linearGradient id="SVGID_4_" gradientUnits="userSpaceOnUse" x1="256.584" y1="200.471" x2="256.584" y2="23.8944">
		<stop  offset="0.2581" style="stop-color:#FFFF00;stop-opacity:0.4"/>
		<stop  offset="0.8548" style="stop-color:#FFFF00;stop-opacity:0.4"/>
	</linearGradient>
	<path class="st6" d="M460.8,185.1c-1.2-9.5-75.5-29-131.9-40l-13.4-2.6l-5.5-12.5c-17.8-40.4-41.6-93.7-54.4-93.3
		c-12.8,0.3-44.6,55.9-68.4,99.7l-5.9,10.9l-12.2,2.3c-48.8,9.3-115.6,22.6-116.8,34.6c-1.1,10.8,36.5,43.2,70.9,70.6
		c85.4-40,204.8-71.6,336.2-65.3C460.4,187.7,460.9,186.2,460.8,185.1z"/>
</g>
</svg>
