<?xml version="1.0" encoding="utf-8"?>
<!-- Generator: Adobe Illustrator 24.1.0, SVG Export Plug-In . SVG Version: 6.00 Build 0)  -->
<svg version="1.1" id="Layer_1" xmlns="http://www.w3.org/2000/svg" xmlns:xlink="http://www.w3.org/1999/xlink" x="0px" y="0px"
	 viewBox="0 0 512 512" style="enable-background:new 0 0 512 512;" xml:space="preserve">
<style type="text/css">
	.st0{opacity:0.1;fill:url(#SVGID_1_);}
</style>
<radialGradient id="SVGID_1_" cx="259.4165" cy="266.1076" r="264.3216" gradientUnits="userSpaceOnUse">
	<stop  offset="0.3656" style="stop-color:#FFFFFF"/>
	<stop  offset="0.9731" style="stop-color:#FFFFFF;stop-opacity:0"/>
</radialGradient>
<path class="st0" d="M299,0.9l-42.7,255l-42.6-255h42.6H299z M106.4,49.6L71.9,74.7l184.4,181.2L141,24.6L106.4,49.6z M13.8,177.1
	L0.6,217.7l255.7,38.2L27,136.6L13.8,177.1z M13.8,334.7L27,375.3l229.3-119.4L0.6,294.1L13.8,334.7z M106.4,462.2l34.5,25.1
	l115.4-231.4L71.9,437.1L106.4,462.2z M256.3,510.9H299l-42.7-255l-42.6,255L256.3,510.9z M406.2,462.2l34.5-25.1L256.3,255.9
	l115.4,231.4L406.2,462.2z M485.6,375.3l13.2-40.6l13.2-40.6l-255.7-38.2L485.6,375.3z M498.8,177.1l-13.2-40.6L256.3,255.9
	L512,217.7L498.8,177.1z M406.2,49.6l-34.5-25.1L256.3,255.9L440.7,74.7L406.2,49.6z"/>
</svg>
